{
  "accessors": [
    {
      "bufferView": 2,
      "componentType": 5126,
      "count": 2476,
      "max": [
        15.075092315673828,
        13.458223342895508,
        44.99490737915039
      ],
      "min": [
        -11.905153274536133,
        -15.263011932373047,
        1.3848693370819092
      ],
      "type": "VEC3"
    },
    {
      "bufferView": 2,
      "byteOffset": 29712,
      "componentType": 5126,
      "count": 2476,
      "max": [
        1.0,
        1.0,
        1.0
      ],
      "min": [
        -1.0,
        -1.0,
        -1.0
      ],
      "type": "VEC3"
    },
    {
      "bufferView": 3,
      "componentType": 5126,
      "count": 2476,
      "max": [
        1.0,
        1.0,
        0.9988095164299011,
        1.0
      ],
      "min": [
        -1.0,
        -1.0,
        -0.9992318153381348,
        1.0
      ],
      "type": "VEC4"
    },
    {
      "bufferView": 1,
      "componentType": 5126,
      "count": 2476,
      "max": [
        0.999500036239624,
        0.9982792735099792
      ],
      "min": [
        0.0005000000237487257,
        0.0005000000237487257
      ],
      "type": "VEC2"
    },
    {
      "bufferView": 0,
      "componentType": 5125,
      "count": 8712,
      "type": "SCALAR"
    },
    {
      "bufferView": 2,
      "byteOffset": 59424,
      "componentType": 5126,
      "count": 492,
      "max": [
        10.13376235961914,
        10.13376235961914,
        15.253019332885742
      ],
      "min": [
        -10.13376235961914,
        -10.13376235961914,
        14.41926383972168
      ],
      "type": "VEC3"
    },
    {
      "bufferView": 2,
      "byteOffset": 65328,
      "componentType": 5126,
      "count": 492,
      "max": [
        1.0,
        1.0,
        1.0
      ],
      "min": [
        -1.0,
        -1.0,
        -1.0
      ],
      "type": "VEC3"
    },
    {
      "bufferView": 3,
      "byteOffset": 39616,
      "componentType": 5126,
      "count": 492,
      "max": [
        1.0,
        1.0,
        0.6970012187957764,
        1.0
      ],
      "min": [
        -1.0,
        -1.0,
        -1.0,
        1.0
      ],
      "type": "VEC4"
    },
    {
      "bufferView": 1,
      "byteOffset": 19808,
      "componentType": 5126,
      "count": 492,
      "max": [
        0.9557243585586548,
        0.7439640164375305
      ],
      "min": [
        0.23489001393318176,
        0.0005000000237487257
      ],
      "type": "VEC2"
    },
    {
      "bufferView": 0,
      "byteOffset": 34848,
      "componentType": 5125,
      "count": 1512,
      "type": "SCALAR"
    },
    {
      "bufferView": 2,
      "byteOffset": 71232,
      "componentType": 5126,
      "count": 307,
      "max": [
        15.479180335998535,
        1.1084082126617432,
        16.30329132080078
      ],
      "min": [
        10.10616683959961,
        -2.4189233779907227,
        11.736936569213867
      ],
      "type": "VEC3"
    },
    {
      "bufferView": 2,
      "byteOffset": 74916,
      "componentType": 5126,
      "count": 307,
      "max": [
        1.0,
        0.9966776371002197,
        0.9961947202682495
      ],
      "min": [
        -1.0,
        -0.9968773722648621,
        -0.9961947202682495
      ],
      "type": "VEC3"
    },
    {
      "bufferView": 3,
      "byteOffset": 47488,
      "componentType": 5126,
      "count": 307,
      "max": [
        0.9999697804450989,
        0.9984123706817627,
        0.8910210728645325,
        1.0
      ],
      "min": [
        -0.9999411106109619,
        -0.9919577836990356,
        -0.8696450591087341,
        1.0
      ],
      "type": "VEC4"
    },
    {
      "bufferView": 1,
      "byteOffset": 23744,
      "componentType": 5126,
      "count": 307,
      "max": [
        0.700391411781311,
        0.9403963088989258
      ],
      "min": [
        0.2827247083187103,
        0.005283469334244728
      ],
      "type": "VEC2"
    },
    {
      "bufferView": 0,
      "byteOffset": 40896,
      "componentType": 5125,
      "count": 1290,
      "type": "SCALAR"
    },
    {
      "bufferView": 4,
      "componentType": 5126,
      "count": 241,
      "max": [
        8.0
      ],
      "min": [
        0.0
      ],
      "type": "SCALAR"
    },
    {
      "bufferView": 5,
      "componentType": 5126,
      "count": 241,
      "max": [
        0.4979505240917206,
        0.7071067690849304,
        0.7071067690849304,
        0.7071067690849304
      ],
      "min": [
        -0.7071067690849304,
        -0.4999997317790985,
        -0.4999997317790985,
        -0.4979505240917206
      ],
      "type": "VEC4"
    },
    {
      "bufferView": 4,
      "byteOffset": 964,
      "componentType": 5126,
      "count": 136,
      "max": [
        4.5
      ],
      "min": [
        0.0
      ],
      "type": "SCALAR"
    },
    {
      "bufferView": 5,
      "byteOffset": 3856,
      "componentType": 5126,
      "count": 136,
      "max": [
        0.9999800324440002,
        0.0,
        0.0,
        0.9999337792396545
      ],
      "min": [
        -0.8516057133674622,
        0.0,
        0.0,
        -0.48726484179496765
      ],
      "type": "VEC4"
    }
  ],
  "animations": [
    {
      "channels": [
        {
          "sampler": 0,
          "target": {
            "node": 7,
            "path": "rotation"
          }
        },
        {
          "sampler": 1,
          "target": {
            "node": 10,
            "path": "rotation"
          }
        }
      ],
      "name": "Gramofon_Anim",
      "samplers": [
        {
          "input": 15,
          "interpolation": "LINEAR",
          "output": 16
        },
        {
          "input": 17,
          "interpolation": "LINEAR",
          "output": 18
        }
      ]
    }
  ],
  "asset": {
    "extras": {
      "author": "KIFIR (https://sketchfab.com/kifir)",
      "license": "CC-BY-4.0 (http://creativecommons.org/licenses/by/4.0/)",
      "source": "https://sketchfab.com/3d-models/old-gramophone-5e892fc786db4ca1b36738ab5e40e64d",
      "title": "Old Gramophone"
    },
    "generator": "Sketchfab-12.67.0",
    "version": "2.0"
  },
  "bufferViews": [
    {
      "buffer": 0,
      "byteLength": 46056,
      "name": "floatBufferViews",
      "target": 34963
    },
    {
      "buffer": 0,
      "byteLength": 26200,
      "byteOffset": 46056,
      "byteStride": 8,
      "name": "floatBufferViews",
      "target": 34962
    },
    {
      "buffer": 0,
      "byteLength": 78600,
      "byteOffset": 72256,
      "byteStride": 12,
      "name": "floatBufferViews",
      "target": 34962
    },
    {
      "buffer": 0,
      "byteLength": 52400,
      "byteOffset": 150856,
      "byteStride": 16,
      "name": "floatBufferViews",
      "target": 34962
    },
    {
      "buffer": 0,
      "byteLength": 1508,
      "byteOffset": 203256,
      "name": "floatBufferViews"
    },
    {
      "buffer": 0,
      "byteLength": 6032,
      "byteOffset": 204764,
      "byteStride": 16,
      "name": "floatBufferViews"
    }
  ],
  "buffers": [
    {
      "byteLength": 210796,
      "uri": "scene.bin"
    }
  ],
  "images": [
    {
      "uri": "textures/Scene_-_Root_baseColor.png"
    },
    {
      "uri": "textures/Scene_-_Root_metallicRoughness.png"
    },
    {
      "uri": "textures/Scene_-_Root_normal.png"
    }
  ],
  "materials": [
    {
      "doubleSided": true,
      "name": "Scene_-_Root",
      "normalTexture": {
        "index": 2
      },
      "occlusionTexture": {
        "index": 1,
        "strength": 0.6175685976
      },
      "pbrMetallicRoughness": {
        "baseColorTexture": {
          "index": 0
        },
        "metallicRoughnessTexture": {
          "index": 1
        }
      }
    }
  ],
  "meshes": [
    {
      "name": "Gromofon__0",
      "primitives": [
        {
          "attributes": {
            "NORMAL": 1,
            "POSITION": 0,
            "TANGENT": 2,
            "TEXCOORD_0": 3
          },
          "indices": 4,
          "material": 0,
          "mode": 4
        }
      ]
    },
    {
      "name": "Object001__0",
      "primitives": [
        {
          "attributes": {
            "NORMAL": 6,
            "POSITION": 5,
            "TANGENT": 7,
            "TEXCOORD_0": 8
          },
          "indices": 9,
          "material": 0,
          "mode": 4
        }
      ]
    },
    {
      "name": "Object002__0",
      "primitives": [
        {
          "attributes": {
            "NORMAL": 11,
            "POSITION": 10,
            "TANGENT": 12,
            "TEXCOORD_0": 13
          },
          "indices": 14,
          "material": 0,
          "mode": 4
        }
      ]
    }
  ],
  "nodes": [
    {
      "children": [
        1
      ],
      "matrix": [
        0.05500645935535431,
        0.0,
        0.0,
        0.0,
        0.0,
        1.221388753588444e-17,
        -0.05500645935535431,
        0.0,
        0.0,
        0.05500645935535431,
        1.221388753588444e-17,
        0.0,
        0.0,
        0.0,
        0.0,
        1.0
      ],
      "name": "Sketchfab_model"
    },
    {
      "children": [
        2
      ],
      "matrix": [
        1.0,
        0.0,
        0.0,
        0.0,
        0.0,
        0.0,
        1.0,
        0.0,
        0.0,
        -1.0,
        0.0,
        0.0,
        0.0,
        0.0,
        0.0,
        1.0
      ],
      "name": "2116c92d38514993b56b4ca3412cb887.fbx"
    },
    {
      "children": [
        3
      ],
      "name": "Object_2"
    },
    {
      "children": [
        4,
        7,
        10
      ],
      "name": "RootNode"
    },
    {
      "children": [
        5
      ],
      "name": "Gromofon",
      "rotation": [
        -0.7071068286895752,
        -0.0,
        0.0,
        0.7071068286895752
      ],
      "scale": [
        0.9627419710159302,
        0.9627419710159302,
        0.9627419710159302
      ],
      "translation": [
        -14.723594665527344,
        11.87654972076416,
        2.620060443878174
      ]
    },
    {
      "children": [
        6
      ],
      "matrix": [
        1.0,
        0.0,
        -0.0,
        0.0,
        0.0,
        1.0,
        0.0,
        0.0,
        0.0,
        0.0,
        1.0,
        0.0,
        0.0,
        0.0,
        -14.341459274291992,
        1.0
      ],
      "name": "Object_5"
    },
    {
      "mesh": 0,
      "name": "Gromofon__0"
    },
    {
      "children": [
        8
      ],
      "name": "Object001",
      "rotation": [
        -0.7071068286895752,
        -0.0,
        0.0,
        0.7071068286895752
      ],
      "scale": [
        0.9627419710159302,
        0.9627419710159302,
        0.9627419710159302
      ],
      "translation": [
        -14.723594665527344,
        11.87654972076416,
        2.620060443878174
      ]
    },
    {
      "children": [
        9
      ],
      "matrix": [
        1.0,
        0.0,
        -0.0,
        0.0,
        0.0,
        1.0,
        0.0,
        0.0,
        0.0,
        0.0,
        1.0,
        0.0,
        0.0,
        0.0,
        -14.341459274291992,
        1.0
      ],
      "name": "Object_8"
    },
    {
      "mesh": 1,
      "name": "Object001__0"
    },
    {
      "children": [
        11
      ],
      "name": "Object002",
      "rotation": [
        0.7071067094802856,
        0.0,
        0.0,
        0.7071068286895752
      ],
      "scale": [
        0.9627419710159302,
        0.9627419710159302,
        0.9627419710159302
      ],
      "translation": [
        -4.8824310302734375,
        9.667487144470215,
        4.643800258636475
      ]
    },
    {
      "children": [
        12
      ],
      "matrix": [
        1.0,
        0.0,
        -0.0,
        0.0,
        0.0,
        1.0,
        0.0,
        0.0,
        0.0,
        0.0,
        1.0,
        0.0,
        -10.222015380859375,
        2.102057933807373,
        -12.046906471252441,
        1.0
      ],
      "name": "Object_11"
    },
    {
      "mesh": 2,
      "name": "Object002__0"
    }
  ],
  "samplers": [
    {
      "magFilter": 9729,
      "minFilter": 9987,
      "wrapS": 10497,
      "wrapT": 10497
    }
  ],
  "scene": 0,
  "scenes": [
    {
      "name": "Sketchfab_Scene",
      "nodes": [
        0
      ]
    }
  ],
  "textures": [
    {
      "sampler": 0,
      "source": 0
    },
    {
      "sampler": 0,
      "source": 1
    },
    {
      "sampler": 0,
      "source": 2
    }
  ]
}
